<svg xmlns="http://www.w3.org/2000/svg" data-icon="true" width="24px" height="24px" viewBox="0 0 24 24"><title>wishlist</title><path d="M2.00488 8.71113C2.00488 13.3468 6.60218 18.242 11.7991 21.8887C11.8932 21.9506 11.9637 22 11.999 22C12.046 22 12.1166 21.9506 12.2106 21.8887C17.4076 18.242 22.0049 13.3468 22.0049 8.71113C22.0049 5.31165 19.8885 3 17.0078 3C14.8209 3 13.4922 4.43396 12.6574 5.8432C12.387 6.23878 12.2342 6.57749 11.999 6.57749C11.7638 6.57749 11.5992 6.25114 11.3523 5.8432C10.541 4.4216 9.18889 3 7.00194 3C4.12128 3 2.00488 5.31165 2.00488 8.71113Z" fill="none" stroke="black"></path></svg>