<svg data-icon="true" width="135px" height="40px" viewBox="0 0 135 40" class="mb-3.5"><svg width="135" height="40" viewBox="0 0 135 40" fill="none" xmlns="http://www.w3.org/2000/svg">
        <g clip-path="url(#clip0_414_32421)">
        <path fill-rule="evenodd" clip-rule="evenodd" d="M129.998 40H5.00184C2.24512 40 0 37.7456 0 35V5C0 2.24439 2.24512 0 5.00184 0H129.998C132.752 0 135 2.24439 135 5V35C135 37.7456 132.752 40 129.998 40Z" fill="black"></path>
        <path fill-rule="evenodd" clip-rule="evenodd" d="M129.998 0.800499C132.31 0.800499 134.203 2.68828 134.203 5V35C134.203 37.3117 132.323 39.1995 129.998 39.1995H5.00184C2.68967 39.1995 0.797215 37.3117 0.797215 35V5C0.797215 2.68828 2.67725 0.800499 5.00184 0.800499H129.998ZM129.998 0H5.00184C2.24512 0 0 2.25436 0 5V35C0 37.7556 2.24512 40 5.00184 40H129.998C132.752 40 135 37.7556 135 35V5C135 2.25436 132.752 0 129.998 0Z" fill="#A6A6A6"></path>
        <path d="M71.1182 13.232C70.2167 13.232 69.4567 12.9153 68.8557 12.2918C68.2596 11.6858 67.9268 10.8504 67.9417 9.99755C67.9417 9.08732 68.2497 8.31675 68.8557 7.70577C69.4542 7.08233 70.2142 6.76562 71.1157 6.76562C72.0073 6.76562 72.7672 7.08233 73.3782 7.70577C73.9841 8.3367 74.2921 9.10727 74.2921 9.99755C74.2822 10.9103 73.9742 11.6808 73.3782 12.2893C72.7796 12.9177 72.0197 13.232 71.1182 13.232ZM44.2937 13.232C43.412 13.232 42.6471 12.9202 42.0212 12.3043C41.4004 11.6908 41.085 10.9153 41.085 10C41.085 9.08483 41.4004 8.30927 42.0212 7.6958C42.6347 7.07984 43.3996 6.76812 44.2937 6.76812C44.7308 6.76812 45.1554 6.8554 45.5627 7.03246C45.9626 7.20453 46.2879 7.43894 46.5288 7.72572L46.5884 7.79804L45.9154 8.46139L45.8459 8.37909C45.4659 7.92523 44.9568 7.70328 44.2837 7.70328C43.6827 7.70328 43.1587 7.91774 42.7266 8.34169C42.292 8.76812 42.0709 9.32672 42.0709 10.0025C42.0709 10.6783 42.292 11.2369 42.7266 11.6634C43.1587 12.0873 43.6827 12.3018 44.2837 12.3018C44.9245 12.3018 45.4634 12.0873 45.8831 11.6634C46.1315 11.414 46.2855 11.0649 46.3401 10.6235H44.1819V9.69081H47.2664L47.2789 9.7756C47.3012 9.93271 47.3236 10.0948 47.3236 10.2444C47.3236 11.1048 47.0653 11.8005 46.5537 12.3143C45.9725 12.9227 45.2126 13.232 44.2937 13.232ZM79.9595 13.0998H79.0083L76.0951 8.41899L76.12 9.26188V13.0973H75.1688V6.90029H76.2541L76.2839 6.94767L79.0232 11.3566L78.9984 10.5162V6.90029H79.9595V13.0998ZM63.9706 13.0998H63.007V7.83296H61.3356V6.90029H65.6395V7.83296H63.9681V13.0998H63.9706ZM60.5508 13.0998H59.5897V6.90029H60.5508V13.0998ZM55.1491 13.0998H54.188V7.83296H52.5166V6.90029H56.8205V7.83296H55.1491V13.0998ZM51.9081 13.0898H48.2226V6.90029H51.9081V7.83296H49.1862V9.5337H51.6424V10.4564H49.1862V12.1571H51.9081V13.0898ZM69.561 11.6509C69.9906 12.0823 70.5122 12.2993 71.1182 12.2993C71.7415 12.2993 72.2507 12.0873 72.6753 11.6509C73.0975 11.227 73.3111 10.6709 73.3111 10C73.3111 9.32922 73.0975 8.77061 72.6778 8.34917C72.2482 7.91774 71.7241 7.70079 71.1206 7.70079C70.4973 7.70079 69.9882 7.91276 69.566 8.34917C69.1438 8.77311 68.9302 9.32922 68.9302 10C68.9302 10.6709 69.1413 11.2295 69.561 11.6509Z" fill="white"></path>
        <path fill-rule="evenodd" clip-rule="evenodd" d="M67.8528 21.7544C65.5059 21.7544 63.6035 23.5425 63.6035 26.0088C63.6035 28.4527 65.5183 30.2632 67.8528 30.2632C70.1998 30.2632 72.1021 28.4627 72.1021 26.0088C72.1021 23.5425 70.1998 21.7544 67.8528 21.7544ZM67.8528 28.5774C66.5688 28.5774 65.4636 27.5101 65.4636 25.9988C65.4636 24.4652 66.5713 23.4203 67.8528 23.4203C69.1368 23.4203 70.242 24.4652 70.242 25.9988C70.2445 27.52 69.1368 28.5774 67.8528 28.5774ZM58.5818 21.7544C56.2348 21.7544 54.3324 23.5425 54.3324 26.0088C54.3324 28.4527 56.2472 30.2632 58.5818 30.2632C60.9287 30.2632 62.8311 28.4627 62.8311 26.0088C62.8311 23.5425 60.9262 21.7544 58.5818 21.7544ZM58.5818 28.5774C57.2978 28.5774 56.1926 27.5101 56.1926 25.9988C56.1926 24.4652 57.3003 23.4203 58.5818 23.4203C59.8658 23.4203 60.9709 24.4652 60.9709 25.9988C60.9709 27.52 59.8658 28.5774 58.5818 28.5774ZM47.5499 23.0537V24.8542H51.8539C51.7222 25.8642 51.3894 26.6098 50.8803 27.121C50.2495 27.7544 49.2759 28.4427 47.5598 28.4427C44.9149 28.4427 42.8461 26.2981 42.8461 23.6422C42.8461 20.9864 44.9149 18.8417 47.5598 18.8417C48.9879 18.8417 50.0285 19.4078 50.8008 20.131L52.0724 18.8542C50.9995 17.8218 49.5715 17.0312 47.5698 17.0312C43.9413 17.0312 40.8965 19.9988 40.8965 23.6322C40.8965 27.2756 43.9388 30.2332 47.5698 30.2332C49.5293 30.2332 50.9995 29.5899 52.1618 28.3779C53.3465 27.1884 53.7215 25.5101 53.7215 24.1559C53.7215 23.7345 53.6892 23.3554 53.6221 23.0337H47.5474C47.5499 23.0312 47.5499 23.0537 47.5499 23.0537ZM92.6733 24.4552C92.3181 23.5001 91.2453 21.7445 89.0448 21.7445C86.8643 21.7445 85.0513 23.4677 85.0513 25.9988C85.0513 28.3879 86.8444 30.2532 89.2559 30.2532C91.1931 30.2532 92.3206 29.0637 92.7851 28.3654L91.3471 27.3978C90.8702 28.1086 90.2071 28.5749 89.2659 28.5749C88.3147 28.5749 87.6491 28.141 87.207 27.2856L92.872 24.929C92.872 24.9315 92.6733 24.4552 92.6733 24.4552ZM86.8966 25.8766C86.8519 24.2332 88.1682 23.3978 89.1094 23.3978C89.852 23.3978 90.4704 23.7644 90.6815 24.2981L86.8966 25.8766ZM82.2946 29.9988H84.1548V17.5001H82.2946V29.9988ZM79.2398 22.6996H79.1728C78.7531 22.1983 77.9558 21.7445 76.9376 21.7445C74.8241 21.7445 72.877 23.6123 72.877 26.0113C72.877 28.4003 74.8142 30.2457 76.9376 30.2457C77.9434 30.2457 78.7531 29.7894 79.1728 29.2781H79.2398V29.8891C79.2398 31.5125 78.3756 32.3879 76.9823 32.3879C75.8424 32.3879 75.1345 31.5649 74.8465 30.8766L73.2297 31.5549C73.6941 32.6771 74.9334 34.0662 76.9798 34.0662C79.1604 34.0662 81.0081 32.7769 81.0081 29.6322V21.9988H79.2498V22.6996C79.2523 22.6996 79.2398 22.6996 79.2398 22.6996ZM77.104 28.5774C75.82 28.5774 74.7471 27.5001 74.7471 26.0113C74.7471 24.5101 75.82 23.4228 77.104 23.4228C78.3756 23.4228 79.3615 24.5225 79.3615 26.0113C79.3739 27.5001 78.378 28.5774 77.104 28.5774ZM101.383 17.5001H96.935V29.9988H98.7952V25.2657H101.386C103.444 25.2657 105.468 23.7669 105.468 21.3879C105.468 19.0088 103.452 17.5001 101.383 17.5001ZM101.438 23.52H98.7927V19.2308H101.438C102.831 19.2308 103.618 20.3854 103.618 21.3754C103.618 22.3554 102.821 23.52 101.438 23.52ZM112.924 21.732C111.573 21.732 110.18 22.333 109.604 23.6422L111.253 24.3305C111.608 23.6422 112.258 23.4078 112.946 23.4078C113.91 23.4078 114.884 23.9864 114.906 25.0188V25.1509C114.573 24.9614 113.843 24.6721 112.969 24.6721C111.188 24.6721 109.383 25.6497 109.383 27.4826C109.383 29.1609 110.843 30.2382 112.47 30.2382C113.719 30.2382 114.407 29.6721 114.836 29.0163H114.903V29.9839H116.697V25.1958C116.697 22.9664 115.047 21.732 112.924 21.732ZM112.691 28.5774C112.082 28.5774 111.23 28.2781 111.23 27.5101C111.23 26.5425 112.293 26.1759 113.2 26.1759C114.019 26.1759 114.407 26.3529 114.894 26.5973C114.759 27.7195 113.816 28.5674 112.691 28.5774ZM123.238 21.9988L121.102 27.4203H121.035L118.822 21.9988H116.821L120.141 29.5774L118.249 33.7894H120.186L125.295 21.9988H123.238ZM106.494 29.9988H108.354V17.5001H106.494V29.9988Z" fill="white"></path>
        <path fill-rule="evenodd" clip-rule="evenodd" d="M10.391 7.53218C10.1029 7.8439 9.93652 8.32021 9.93652 8.94365V31.0559C9.93652 31.6793 10.1029 32.1556 10.4009 32.4549L10.4779 32.5222L22.8161 20.1332V19.8564L10.468 7.46484L10.391 7.53218Z" fill="url(#paint0_linear_414_32421)"></path>
        <path fill-rule="evenodd" clip-rule="evenodd" d="M26.9214 24.2763L22.8062 20.1441V19.8548L26.9214 15.7227L27.0108 15.7775L31.8786 18.5556C33.2718 19.3436 33.2718 20.6454 31.8786 21.4434L27.0108 24.2214L26.9214 24.2763Z" fill="url(#paint1_linear_414_32421)"></path>
        <path fill-rule="evenodd" clip-rule="evenodd" d="M27.0109 24.2219L22.8063 20L10.3911 32.4663C10.8456 32.9551 11.608 33.01 12.4599 32.5337L27.0109 24.2219Z" fill="url(#paint2_linear_414_32421)"></path>
        <path fill-rule="evenodd" clip-rule="evenodd" d="M27.0109 15.7784L12.4599 7.47918C11.608 6.9904 10.8431 7.05774 10.3911 7.54651L22.8063 20.0004L27.0109 15.7784Z" fill="url(#paint3_linear_414_32421)"></path>
        <path opacity="0.2" fill-rule="evenodd" clip-rule="evenodd" d="M26.9214 24.1328L12.4697 32.3772C11.6625 32.8435 10.9423 32.8111 10.4779 32.3871L10.4009 32.4645L10.4779 32.5318C10.9423 32.9532 11.6625 32.9881 12.4697 32.5218L27.0208 24.2226L26.9214 24.1328Z" fill="black"></path>
        <path opacity="0.12" fill-rule="evenodd" clip-rule="evenodd" d="M31.8787 21.2993L26.9092 24.1322L26.9986 24.2219L31.8663 21.4439C32.5642 21.0449 32.9069 20.5212 32.9069 20C32.8647 20.4788 32.5095 20.9327 31.8787 21.2993Z" fill="black"></path>
        <path opacity="0.25" fill-rule="evenodd" clip-rule="evenodd" d="M12.4598 7.62427L31.8786 18.7016C32.5094 19.0582 32.8645 19.5245 32.9192 20.0008C32.9192 19.4796 32.5764 18.9559 31.8786 18.5569L12.4598 7.47963C11.0665 6.67913 9.93652 7.34746 9.93652 8.94597V9.0906C9.93652 7.48961 11.0665 6.83375 12.4598 7.62427Z" fill="white"></path>
        </g>
        <defs>
        <linearGradient id="paint0_linear_414_32421" x1="21.7094" y1="8.70508" x2="1.93502" y2="13.9524" gradientUnits="userSpaceOnUse">
        <stop stop-color="#00A0FF"></stop>
        <stop offset="0.00657" stop-color="#00A1FF"></stop>
        <stop offset="0.2601" stop-color="#00BEFF"></stop>
        <stop offset="0.5122" stop-color="#00D2FF"></stop>
        <stop offset="0.7604" stop-color="#00DFFF"></stop>
        <stop offset="1" stop-color="#00E3FF"></stop>
        </linearGradient>
        <linearGradient id="paint1_linear_414_32421" x1="33.6955" y1="19.9995" x2="9.59777" y2="19.9995" gradientUnits="userSpaceOnUse">
        <stop stop-color="#FFE000"></stop>
        <stop offset="0.4087" stop-color="#FFBD00"></stop>
        <stop offset="0.7754" stop-color="#FFA500"></stop>
        <stop offset="1" stop-color="#FF9C00"></stop>
        </linearGradient>
        <linearGradient id="paint2_linear_414_32421" x1="24.7246" y1="22.2973" x2="8.76185" y2="49.0538" gradientUnits="userSpaceOnUse">
        <stop stop-color="#FF3A44"></stop>
        <stop offset="1" stop-color="#C31162"></stop>
        </linearGradient>
        <linearGradient id="paint3_linear_414_32421" x1="7.26483" y1="0.179171" x2="14.3865" y2="12.1291" gradientUnits="userSpaceOnUse">
        <stop stop-color="#32A071"></stop>
        <stop offset="0.0685" stop-color="#2DA771"></stop>
        <stop offset="0.4762" stop-color="#15CF74"></stop>
        <stop offset="0.8009" stop-color="#06E775"></stop>
        <stop offset="1" stop-color="#00F076"></stop>
        </linearGradient>
        <clipPath id="clip0_414_32421">
        <rect width="135" height="40" fill="white"></rect>
        </clipPath>
        </defs>
        </svg>
        </svg>