<svg xmlns="http://www.w3.org/2000/svg" data-icon="true" width="24px" height="24px" viewBox="0 0 24 24"><path d="M19.59 5.73C19.5888 6.05142 19.4762 6.36248 19.2713 6.61015C19.0664 6.85782 18.782 7.02678 18.4665 7.08822C18.151 7.14966 17.824 7.09977 17.5411 6.94708C17.2583 6.79438 17.0372 6.54831 16.9155 6.25083C16.7937 5.95334 16.779 5.62285 16.8736 5.31569C16.9683 5.00852 17.1666 4.7437 17.4347 4.56636C17.7027 4.38903 18.024 4.31015 18.3437 4.34318C18.6635 4.37621 18.9618 4.5191 19.188 4.7475C19.4467 5.00895 19.5912 5.36222 19.59 5.73V5.73ZM24 12V12.018L23.9205 17.052C23.9002 18.8675 23.1701 20.6029 21.8864 21.8869C20.6028 23.1709 18.8675 23.9013 17.052 23.922L12 24H11.988L6.948 23.9205C5.13251 23.9002 3.39707 23.1701 2.11311 21.8864C0.829143 20.6028 0.0986614 18.8675 0.0780001 17.052L0 12V11.982L0.0795 6.9525C0.0985969 5.13623 0.828184 3.39965 2.11199 2.11472C3.3958 0.829787 5.13174 0.0986828 6.948 0.078L12 0H12.018L17.052 0.0795C18.8683 0.0997865 20.6044 0.830511 21.8885 2.11516C23.1725 3.39981 23.9025 5.13623 23.922 6.9525L24 12ZM21.765 12L21.687 6.9825C21.673 5.74843 21.1765 4.56885 20.3038 3.69618C19.4311 2.8235 18.2516 2.32703 17.0175 2.313L12 2.235L6.9825 2.313C5.74843 2.32703 4.56885 2.8235 3.69618 3.69618C2.8235 4.56885 2.32703 5.74843 2.313 6.9825L2.238 12L2.313 17.0175C2.32703 18.2516 2.8235 19.4311 3.69618 20.3038C4.56885 21.1765 5.74843 21.673 6.9825 21.687L12 21.765L17.0175 21.687C18.2516 21.673 19.4311 21.1765 20.3038 20.3038C21.1765 19.4311 21.673 18.2516 21.687 17.0175L21.765 12ZM18.165 12C18.1656 13.426 17.6715 14.8081 16.7671 15.9106C15.8626 17.0131 14.6038 17.7677 13.2052 18.046C11.8066 18.3242 10.3548 18.1087 9.09732 17.4363C7.83981 16.7638 6.85445 15.6761 6.30921 14.3584C5.76397 13.0408 5.69262 11.5748 6.10731 10.2104C6.522 8.84605 7.39707 7.66774 8.58333 6.87636C9.76958 6.08498 11.1936 5.72953 12.6126 5.87061C14.0316 6.01168 15.3578 6.64055 16.365 7.65C17.516 8.80511 18.1622 10.3693 18.162 12H18.165ZM15.93 12C15.9301 11.0915 15.6153 10.211 15.039 9.50858C14.4627 8.80618 13.6607 8.32533 12.7697 8.14795C11.8786 7.97057 10.9536 8.10765 10.1523 8.53582C9.35099 8.96399 8.72292 9.65676 8.37513 10.4961C8.02733 11.3354 7.98133 12.2694 8.24495 13.1388C8.50857 14.0083 9.06551 14.7594 9.82088 15.2643C10.5762 15.7691 11.4833 15.9965 12.3875 15.9075C13.2916 15.8186 14.137 15.4189 14.7795 14.7765C15.5149 14.0397 15.9276 13.041 15.927 12H15.93Z" fill="#000000"></path></svg>